<svg xmlns="http://www.w3.org/2000/svg" xmlns:xlink="http://www.w3.org/1999/xlink" version="1.1" x="0px" y="0px" viewBox="0 0 100 125" enable-background="new 0 0 100 100" xml:space="preserve"><g><path d="M89.875,10.258C88.492,8.874,86.8,8,84.923,8h-10c-1.96,0-3.617,0.874-5.06,2.321C68.601,11.696,68,13.543,68,15.47v9.875   c0,1.927,0.601,3.601,1.863,4.977l0.103-0.049C71.342,31.533,72.997,32,74.923,32h10c1.843,0,3.514-0.467,4.953-1.789   C91.259,28.828,92,27.305,92,25.345v-10C92,13.468,91.259,11.642,89.875,10.258z M88,25.345c0,0.885-0.329,1.415-0.89,1.978   C86.478,27.902,85.757,28,84.923,28h-10c-0.888,0-1.553-0.08-2.17-0.619C72.213,26.765,72,26.233,72,25.345V15.47   c0-0.919,0.231-1.814,0.75-2.383C73.375,12.463,74.038,12,74.923,12h10c0.799,0,1.5,0.463,2.125,1.086   C87.671,13.71,88,14.545,88,15.345V25.345z"/><path d="M54.923,8h-10c-1.96,0-3.616,0.874-5.06,2.321C38.601,11.696,38,13.543,38,15.47v9.875c0,1.927,0.601,3.601,1.862,4.977   l0.103-0.049C41.342,31.533,42.997,32,44.922,32h10c1.843,0,3.514-0.467,4.953-1.789C61.259,28.828,62,27.305,62,25.345v-10   c0-1.877-0.741-3.703-2.125-5.086C58.492,8.874,56.8,8,54.923,8z M58,25.345c0,0.885-0.329,1.415-0.89,1.978   C56.478,27.902,55.757,28,54.923,28h-10c-0.888,0-1.553-0.08-2.17-0.619C42.213,26.765,42,26.233,42,25.345V15.47   c0-0.919,0.231-1.814,0.75-2.383C43.374,12.463,44.038,12,44.922,12h10c0.799,0,1.5,0.463,2.125,1.086   C57.671,13.71,58,14.545,58,15.345V25.345z"/><path d="M84.923,38h-10c-1.96,0-3.617,0.874-5.06,2.321C68.601,41.696,68,43.543,68,45.47v9.875c0,1.927,0.601,3.602,1.863,4.977   l0.103-0.05C71.341,61.533,72.996,62,74.923,62h10c1.844,0,3.515-0.467,4.953-1.789C91.259,58.828,92,57.305,92,55.345v-10   c0-1.877-0.741-3.703-2.125-5.086C88.492,38.874,86.8,38,84.923,38z M88,55.345c0,0.885-0.329,1.415-0.89,1.979   C86.478,57.903,85.757,58,84.923,58h-10c-0.888,0-1.554-0.08-2.17-0.619C72.213,56.765,72,56.232,72,55.345V45.47   c0-0.919,0.231-1.814,0.75-2.383C73.375,42.463,74.038,42,74.923,42h10c0.799,0,1.5,0.463,2.125,1.086   C87.671,43.71,88,44.545,88,45.345V55.345z"/><path d="M54.923,38h-10c-1.96,0-3.616,0.874-5.06,2.321C38.601,41.696,38,43.543,38,45.47v9.875c0,1.927,0.601,3.602,1.862,4.977   l0.103-0.05C41.341,61.533,42.996,62,44.922,62h10c1.844,0,3.515-0.467,4.953-1.789C61.259,58.828,62,57.305,62,55.345v-10   c0-1.877-0.741-3.703-2.125-5.086C58.492,38.874,56.8,38,54.923,38z M58,55.345c0,0.885-0.329,1.415-0.89,1.979   C56.478,57.903,55.757,58,54.923,58h-10c-0.888,0-1.553-0.08-2.17-0.619C42.213,56.765,42,56.232,42,55.345V45.47   c0-0.919,0.231-1.814,0.75-2.383C43.374,42.463,44.038,42,44.922,42h10c0.799,0,1.5,0.463,2.125,1.086   C57.671,43.71,58,44.545,58,45.345V55.345z"/><path d="M84.923,68h-10c-1.96,0-3.617,0.875-5.06,2.321C68.601,71.696,68,73.543,68,75.47v9.875c0,1.927,0.601,3.602,1.863,4.977   l0.103-0.05C71.341,91.533,72.996,92,74.923,92h10c1.844,0,3.515-0.467,4.953-1.789C91.259,88.828,92,87.305,92,85.345v-10   c0-1.877-0.741-3.703-2.125-5.086S86.8,68,84.923,68z M88,85.345c0,0.885-0.329,1.415-0.89,1.979   C86.478,87.903,85.757,88,84.923,88h-10c-0.888,0-1.554-0.08-2.17-0.619C72.213,86.765,72,86.232,72,85.345V75.47   c0-0.919,0.231-1.814,0.75-2.383C73.375,72.462,74.038,72,74.923,72h10c0.799,0,1.5,0.462,2.125,1.086S88,74.546,88,75.345V85.345z   "/><path d="M54.923,68h-10c-1.96,0-3.616,0.875-5.06,2.321C38.601,71.696,38,73.543,38,75.47v9.875c0,1.927,0.601,3.602,1.862,4.977   l0.103-0.05C41.341,91.533,42.996,92,44.922,92h10c1.844,0,3.515-0.467,4.953-1.789C61.259,88.828,62,87.305,62,85.345v-10   c0-1.877-0.741-3.703-2.125-5.086S56.8,68,54.923,68z M58,85.345c0,0.885-0.329,1.415-0.89,1.979   C56.478,87.903,55.757,88,54.923,88h-10c-0.888,0-1.553-0.08-2.17-0.619C42.213,86.765,42,86.232,42,85.345V75.47   c0-0.919,0.231-1.814,0.75-2.383C43.374,72.462,44.038,72,44.922,72h10c0.799,0,1.5,0.462,2.125,1.086S58,74.546,58,75.345V85.345z   "/><path d="M24.922,8h-10c-1.96,0-3.616,0.874-5.06,2.321C8.601,11.696,8,13.543,8,15.47v9.875c0,1.927,0.601,3.601,1.862,4.977   l0.103-0.049C11.342,31.533,12.997,32,14.922,32h10c1.843,0,3.514-0.467,4.953-1.789C31.26,28.828,32,27.305,32,25.345v-10   c0-1.877-0.74-3.703-2.125-5.086C28.491,8.874,26.799,8,24.922,8z M28,25.345c0,0.885-0.329,1.415-0.89,1.978   C26.478,27.902,25.756,28,24.922,28h-10c-0.888,0-1.553-0.08-2.17-0.619C12.213,26.765,12,26.233,12,25.345V15.47   c0-0.919,0.231-1.814,0.75-2.383C13.374,12.463,14.038,12,14.922,12h10c0.799,0,1.501,0.463,2.125,1.086   C27.671,13.71,28,14.545,28,15.345V25.345z"/><path d="M24.922,38h-10c-1.96,0-3.616,0.874-5.06,2.321C8.601,41.696,8,43.543,8,45.47v9.875c0,1.927,0.601,3.602,1.862,4.977   l0.103-0.05C11.341,61.533,12.996,62,14.922,62h10c1.844,0,3.515-0.467,4.953-1.789C31.26,58.828,32,57.305,32,55.345v-10   c0-1.877-0.74-3.703-2.125-5.086C28.491,38.874,26.799,38,24.922,38z M28,55.345c0,0.885-0.329,1.415-0.89,1.979   C26.478,57.903,25.756,58,24.922,58h-10c-0.888,0-1.553-0.08-2.17-0.619C12.213,56.765,12,56.232,12,55.345V45.47   c0-0.919,0.231-1.814,0.75-2.383C13.374,42.463,14.038,42,14.922,42h10c0.799,0,1.501,0.463,2.125,1.086   C27.671,43.71,28,44.545,28,45.345V55.345z"/><path d="M24.922,68h-10c-1.96,0-3.616,0.875-5.06,2.321C8.601,71.696,8,73.543,8,75.47v9.875c0,1.927,0.601,3.602,1.862,4.977   l0.103-0.05C11.341,91.533,12.996,92,14.922,92h10c1.844,0,3.515-0.467,4.953-1.789C31.26,88.828,32,87.305,32,85.345v-10   c0-1.877-0.74-3.703-2.125-5.086C28.491,68.875,26.799,68,24.922,68z M28,85.345c0,0.885-0.329,1.415-0.89,1.979   C26.478,87.903,25.756,88,24.922,88h-10c-0.888,0-1.553-0.08-2.17-0.619C12.213,86.765,12,86.232,12,85.345V75.47   c0-0.919,0.231-1.814,0.75-2.383C13.374,72.462,14.038,72,14.922,72h10c0.799,0,1.501,0.462,2.125,1.086   C27.671,73.71,28,74.546,28,75.345V85.345z"/></g><text x="0" y="115" fill="#000000" font-size="5px" font-weight="bold" font-family="'Helvetica Neue', Helvetica, Arial-Unicode, Arial, Sans-serif">Created by Perametade Games</text><text x="0" y="120" fill="#000000" font-size="5px" font-weight="bold" font-family="'Helvetica Neue', Helvetica, Arial-Unicode, Arial, Sans-serif">from the Noun Project</text></svg>